<svg xlink="http://www.w3.org/1999/xlink" viewBox="0 0 5000 5000" xmlns="http://www.w3.org/2000/svg" style="transform: scale(1);"><defs><filter id="goo"><feGaussianBlur in="SourceGraphic" stdDeviation="0" result="blur"></feGaussianBlur><feColorMatrix in="blur" type="matrix" values="1 0 0 0 0 0 1 0 0 0 0 0 1 0 0 0 0 0 19 -9" result="good"></feColorMatrix><feComposite in="SourceGraphic" in2="goo" operator="atop"></feComposite></filter><path d="M191,168C223,146 263,144 293,159C323,173 343,199 350,237C354,277 337,313 309,332C277,354 237,356 207,341C177,327 157,301 150,263C146,223 163,187 191,168z" id="P0"></path><path d="M176,203L327,208L244,338L176,203z" id="P1"></path><path d="M356,257L243,356L144,243L257,144L356,257z" id="P2"></path><path d="M172,128L342,138L385,303L241,395L110,286L172,128z" id="P3"></path><path d="M263,144L349,211L337,313L237,356L151,289L163,187L263,144z" id="P4"></path><path d="M109,223C121,168 160,127 206,113C250,99 297,106 342,139C384,176 401,231 391,277C379,332 340,373 294,387C250,401 203,394 158,361C116,324 99,269 109,223z" id="P5"></path><path d="M135,196L353,175L258,377L135,196z" id="P6"></path><path d="M141,293L207,141L359,207L293,359L141,293z" id="P7"></path><path d="M364,279L257,368L140,293L175,159L313,150L364,279z" id="P8"></path><path d="M112,185L240,97L374,160L388,315L260,403L126,340L112,185z" id="P9"></path><path d="M73,261C72,192 105,130 155,101C204,70 262,65 325,90C387,122 424,181 427,239C428,308 395,370 345,399C296,430 238,435 175,410C113,378 76,319 73,261z" id="P10"></path><path d="M286,60L399,373L66,310L286,60z" id="P11"></path><path d="M178,69L431,178L322,431L69,322L178,69z" id="P12"></path><path d="M83,144L299,58L448,238L323,434L97,376L83,144z" id="P13"></path><path d="M76,295L127,119L295,76L424,205L373,381L205,424L76,295z" id="P14"></path><path d="M78,194C102,128 158,82 216,72C274,61 331,78 382,126C428,179 442,250 422,306C398,372 342,418 284,428C226,439 169,422 118,374C72,321 58,250 78,194z" id="P15"></path><path d="M402,260L169,378L185,112L402,260z" id="P16"></path><path d="M341,415L85,341L159,85L415,159L341,415z" id="P17"></path><path d="M242,378L126,282L181,142L332,151L369,297L242,378z" id="P18"></path><path d="M250,437L86,340L86,160L250,63L414,160L414,340L250,437z" id="P19"></path><path d="M332,282C318,314 290,334 261,337C233,341 205,331 182,306C161,279 157,244 168,218C182,186 210,166 239,163C267,159 295,169 318,194C339,221 343,256 332,282z" id="P20"></path><path d="M240,174L322,278L188,295L240,174z" id="P21"></path><path d="M359,148L352,359L141,352L148,141L359,148z" id="P22"></path><path d="M303,86L422,250L303,414L111,351L111,149L303,86z" id="P23"></path><path d="M134,235L207,141L319,155L366,265L293,359L181,345L134,235z" id="P24"></path></defs><rect id="RECT" width="5000" height="5000" fill="#111"></rect><g id="group" fill="#FFF" filter=""><use x="29" y="93" href="#P4"></use><use x="45" y="392" href="#P0"></use><use x="-206" y="505" href="#P15"></use><use x="6" y="895" href="#P8"></use><use x="-156" y="1199" href="#P9"></use><use x="-83" y="1818" href="#P20"></use><use x="12" y="2227" href="#P18"></use><use x="-140" y="2478" href="#P5"></use><use x="-124" y="2593" href="#P11"></use><use x="15" y="3102" href="#P15"></use><use x="-53" y="3364" href="#P11"></use><use x="100" y="3868" href="#P23"></use><use x="-131" y="4052" href="#P21"></use><use x="67" y="4632" href="#P11"></use><use x="-144" y="4749" href="#P15"></use><use x="-136" y="5297" href="#P3"></use><use x="176" y="-81" href="#P0"></use><use x="121" y="449" href="#P21"></use><use x="190" y="792" href="#P15"></use><use x="168" y="994" href="#P2"></use><use x="162" y="1234" href="#P22"></use><use x="438" y="1846" href="#P4"></use><use x="182" y="2141" href="#P16"></use><use x="261" y="2315" href="#P18"></use><use x="277" y="2924" href="#P0"></use><use x="194" y="3015" href="#P23"></use><use x="259" y="3525" href="#P19"></use><use x="461" y="3723" href="#P16"></use><use x="408" y="4305" href="#P20"></use><use x="389" y="4379" href="#P3"></use><use x="410" y="5012" href="#P9"></use><use x="281" y="5388" href="#P18"></use><use x="814" y="-152" href="#P16"></use><use x="684" y="181" href="#P9"></use><use x="606" y="775" href="#P1"></use><use x="642" y="954" href="#P5"></use><use x="675" y="1395" href="#P14"></use><use x="673" y="1762" href="#P4"></use><use x="544" y="2122" href="#P16"></use><use x="662" y="2336" href="#P10"></use><use x="677" y="2838" href="#P16"></use><use x="731" y="3263" href="#P16"></use><use x="716" y="3554" href="#P9"></use><use x="812" y="3931" href="#P2"></use><use x="609" y="4030" href="#P13"></use><use x="805" y="4615" href="#P1"></use><use x="834" y="4897" href="#P2"></use><use x="837" y="5424" href="#P0"></use><use x="984" y="7" href="#P1"></use><use x="1047" y="290" href="#P17"></use><use x="1072" y="744" href="#P18"></use><use x="919" y="1075" href="#P5"></use><use x="1083" y="1207" href="#P3"></use><use x="996" y="1653" href="#P2"></use><use x="1081" y="2030" href="#P22"></use><use x="1149" y="2549" href="#P23"></use><use x="1057" y="2876" href="#P8"></use><use x="1077" y="3115" href="#P8"></use><use x="1051" y="3616" href="#P1"></use><use x="1042" y="3951" href="#P21"></use><use x="953" y="4104" href="#P24"></use><use x="1183" y="4381" href="#P14"></use><use x="910" y="4759" href="#P10"></use><use x="1033" y="5084" href="#P23"></use><use x="1510" y="50" href="#P1"></use><use x="1310" y="222" href="#P12"></use><use x="1450" y="756" href="#P6"></use><use x="1275" y="852" href="#P16"></use><use x="1515" y="1198" href="#P18"></use><use x="1291" y="1670" href="#P3"></use><use x="1481" y="1969" href="#P5"></use><use x="1410" y="2517" href="#P22"></use><use x="1232" y="2719" href="#P1"></use><use x="1363" y="3079" href="#P23"></use><use x="1576" y="3491" href="#P24"></use><use x="1335" y="3857" href="#P7"></use><use x="1477" y="4267" href="#P12"></use><use x="1533" y="4652" href="#P0"></use><use x="1583" y="4756" href="#P2"></use><use x="1292" y="5233" href="#P20"></use><use x="1802" y="-249" href="#P19"></use><use x="1610" y="250" href="#P13"></use><use x="1595" y="534" href="#P20"></use><use x="1830" y="1036" href="#P18"></use><use x="1836" y="1401" href="#P0"></use><use x="1802" y="1556" href="#P10"></use><use x="1886" y="2025" href="#P4"></use><use x="1612" y="2279" href="#P22"></use><use x="1753" y="2897" href="#P23"></use><use x="1827" y="3074" href="#P22"></use><use x="1715" y="3536" href="#P12"></use><use x="1829" y="3706" href="#P8"></use><use x="1604" y="4048" href="#P4"></use><use x="1592" y="4498" href="#P17"></use><use x="1721" y="4852" href="#P7"></use><use x="1641" y="5389" href="#P22"></use><use x="1959" y="101" href="#P9"></use><use x="2298" y="355" href="#P21"></use><use x="2267" y="469" href="#P20"></use><use x="2106" y="1050" href="#P7"></use><use x="1994" y="1499" href="#P10"></use><use x="2021" y="1562" href="#P2"></use><use x="2203" y="2036" href="#P5"></use><use x="2041" y="2407" href="#P19"></use><use x="2195" y="2652" href="#P2"></use><use x="2310" y="3290" href="#P19"></use><use x="2286" y="3388" href="#P15"></use><use x="2205" y="3709" href="#P24"></use><use x="2306" y="4325" href="#P7"></use><use x="1967" y="4468" href="#P21"></use><use x="2204" y="5045" href="#P17"></use><use x="2190" y="5208" href="#P21"></use><use x="2677" y="84" href="#P8"></use><use x="2646" y="298" href="#P19"></use><use x="2463" y="584" href="#P11"></use><use x="2680" y="1100" href="#P13"></use><use x="2414" y="1313" href="#P12"></use><use x="2666" y="1682" href="#P21"></use><use x="2546" y="2218" href="#P21"></use><use x="2609" y="2316" href="#P11"></use><use x="2407" y="2794" href="#P4"></use><use x="2386" y="3075" href="#P22"></use><use x="2439" y="3562" href="#P24"></use><use x="2327" y="3872" href="#P19"></use><use x="2323" y="4198" href="#P4"></use><use x="2353" y="4709" href="#P19"></use><use x="2580" y="4935" href="#P5"></use><use x="2406" y="5209" href="#P3"></use><use x="2946" y="-32" href="#P22"></use><use x="2893" y="379" href="#P18"></use><use x="2962" y="794" href="#P17"></use><use x="2737" y="1081" href="#P16"></use><use x="2832" y="1311" href="#P15"></use><use x="2705" y="1729" href="#P11"></use><use x="2880" y="2133" href="#P3"></use><use x="2766" y="2455" href="#P18"></use><use x="2929" y="2790" href="#P18"></use><use x="2987" y="3132" href="#P1"></use><use x="2825" y="3351" href="#P3"></use><use x="2978" y="3658" href="#P18"></use><use x="3036" y="4027" href="#P9"></use><use x="2850" y="4650" href="#P1"></use><use x="2741" y="5077" href="#P23"></use><use x="2709" y="5263" href="#P6"></use><use x="3231" y="-243" href="#P2"></use><use x="3193" y="165" href="#P18"></use><use x="3307" y="775" href="#P18"></use><use x="3390" y="827" href="#P16"></use><use x="3247" y="1261" href="#P18"></use><use x="3229" y="1649" href="#P9"></use><use x="3330" y="1933" href="#P6"></use><use x="3081" y="2315" href="#P3"></use><use x="3217" y="2678" href="#P3"></use><use x="3349" y="3029" href="#P5"></use><use x="3234" y="3472" href="#P21"></use><use x="3345" y="3989" href="#P20"></use><use x="3164" y="4202" href="#P14"></use><use x="3391" y="4398" href="#P15"></use><use x="3131" y="4962" href="#P8"></use><use x="3158" y="5092" href="#P11"></use><use x="3763" y="-76" href="#P23"></use><use x="3713" y="460" href="#P14"></use><use x="3495" y="672" href="#P23"></use><use x="3505" y="953" href="#P9"></use><use x="3652" y="1374" href="#P6"></use><use x="3655" y="1595" href="#P15"></use><use x="3646" y="1941" href="#P10"></use><use x="3771" y="2535" href="#P16"></use><use x="3490" y="2638" href="#P7"></use><use x="3484" y="3058" href="#P13"></use><use x="3757" y="3526" href="#P9"></use><use x="3547" y="3821" href="#P22"></use><use x="3530" y="4299" href="#P19"></use><use x="3634" y="4609" href="#P4"></use><use x="3477" y="4724" href="#P18"></use><use x="3663" y="5202" href="#P0"></use><use x="4079" y="95" href="#P19"></use><use x="4102" y="183" href="#P12"></use><use x="3992" y="677" href="#P12"></use><use x="3791" y="1088" href="#P1"></use><use x="3923" y="1375" href="#P13"></use><use x="4149" y="1800" href="#P14"></use><use x="4077" y="1883" href="#P10"></use><use x="4040" y="2401" href="#P2"></use><use x="4057" y="2744" href="#P1"></use><use x="4068" y="2952" href="#P6"></use><use x="4074" y="3654" href="#P1"></use><use x="4054" y="3814" href="#P10"></use><use x="3897" y="4282" href="#P6"></use><use x="4060" y="4560" href="#P22"></use><use x="3829" y="4855" href="#P13"></use><use x="4069" y="5175" href="#P16"></use><use x="4378" y="-236" href="#P15"></use><use x="4468" y="450" href="#P11"></use><use x="4442" y="503" href="#P21"></use><use x="4264" y="990" href="#P5"></use><use x="4378" y="1183" href="#P6"></use><use x="4201" y="1593" href="#P5"></use><use x="4198" y="1929" href="#P8"></use><use x="4343" y="2300" href="#P16"></use><use x="4360" y="2824" href="#P1"></use><use x="4166" y="3102" href="#P21"></use><use x="4441" y="3400" href="#P2"></use><use x="4251" y="3928" href="#P4"></use><use x="4410" y="4047" href="#P3"></use><use x="4402" y="4538" href="#P13"></use><use x="4402" y="4896" href="#P2"></use><use x="4484" y="5256" href="#P14"></use><use x="4595" y="-250" href="#P17"></use><use x="4603" y="183" href="#P23"></use><use x="4695" y="472" href="#P24"></use><use x="4563" y="904" href="#P2"></use><use x="4809" y="1217" href="#P1"></use><use x="4572" y="1814" href="#P24"></use><use x="4704" y="2049" href="#P4"></use><use x="4639" y="2355" href="#P7"></use><use x="4537" y="2931" href="#P8"></use><use x="4790" y="3229" href="#P6"></use><use x="4874" y="3418" href="#P18"></use><use x="4783" y="3733" href="#P1"></use><use x="4531" y="4195" href="#P4"></use><use x="4592" y="4493" href="#P24"></use><use x="4550" y="4906" href="#P14"></use><use x="4756" y="5090" href="#P5"></use><use x="4922" y="-235" href="#P1"></use><use x="4945" y="326" href="#P4"></use><use x="4950" y="540" href="#P16"></use><use x="4962" y="1072" href="#P23"></use><use x="5064" y="1432" href="#P16"></use><use x="5200" y="1823" href="#P23"></use><use x="5064" y="2195" href="#P16"></use><use x="5059" y="2431" href="#P4"></use><use x="4891" y="2863" href="#P10"></use><use x="5088" y="3141" href="#P2"></use><use x="4900" y="3347" href="#P19"></use><use x="5158" y="3889" href="#P17"></use><use x="5239" y="4350" href="#P4"></use><use x="5048" y="4717" href="#P24"></use><use x="4967" y="4783" href="#P2"></use><use x="4937" y="5108" href="#P23"></use></g></svg>